<mxfile host="app.diagrams.net" modified="2023-09-06T19:19:55.945Z" agent="Mozilla/5.0 (Windows NT 10.0; Win64; x64) AppleWebKit/537.36 (KHTML, like Gecko) Chrome/114.0.0.0 Safari/537.36" version="21.7.2" etag="TLSdLb3jMYkFiL5_3B4D" type="github">
  <diagram name="Page-1" id="9WQ2V0bHiOSpvekSDf9E">
    <mxGraphModel>
      <root>
        <mxCell id="0" />
        <mxCell id="1" parent="0" />
      </root>
    </mxGraphModel>
  </diagram>
</mxfile>
